# xmcd
# Copyright (C) 1995-1998 Ti Kan
#
# Track frame offsets:
#       150
#       19813
#       40829
#       66215
#       84678
#       102665
#       123121
#       145395
#       162832
#       188937
#
# Disc length: 2850 seconds
#
# Revision: 0
# Processed by: cddbd v1.5.2PL0 Copyright (c) Steve Scherf et al.
# Submitted via: CD-Import v1.0
#
DISCID=890b200a
DTITLE=Embrace - Out Of Nothing
DYEAR=2004
DGENRE=
TTITLE0=Ashes
TTITLE1=Gravity
TTITLE2=Someday
TTITLE3=Looking As You Are
TTITLE4=Wish 'em All Away
TTITLE5=Keeping
TTITLE6=Spell It Out
TTITLE7=A Glorious Day
TTITLE8=Near Life
TTITLE9=Out Of Nothing
EXTD=
EXTT0=
EXTT1=
EXTT2=
EXTT3=
EXTT4=
EXTT5=
EXTT6=
EXTT7=
EXTT8=
EXTT9=
PLAYORDER=
